<?xml version="1.0" standalone="no"?>
<!DOCTYPE svg PUBLIC "-//W3C//DTD SVG 20010904//EN"
 "http://www.w3.org/TR/2001/REC-SVG-20010904/DTD/svg10.dtd">
<svg version="1.0" xmlns="http://www.w3.org/2000/svg"
 width="700.000000pt" height="700.000000pt" viewBox="0 0 700.000000 700.000000"
 preserveAspectRatio="xMidYMid meet">
<metadata>
Created by potrace 1.14, written by Peter Selinger 2001-2017
</metadata>
<g transform="translate(0.000000,700.000000) scale(0.100000,-0.100000)"
fill="#000000" stroke="none">
<path d="M2518 6988 c-37 -13 -39 -26 -23 -120 15 -87 22 -447 10 -548 -3 -30
-8 -104 -10 -165 -5 -133 -11 -188 -29 -280 -8 -38 -17 -106 -21 -150 -4 -44
-8 -98 -11 -120 -2 -22 -6 -80 -8 -129 -6 -98 -16 -198 -22 -207 -2 -4 3 -9
10 -12 12 -5 11 -15 -6 -59 -11 -29 -19 -55 -18 -58 1 -3 6 -13 11 -22 6 -12
6 -25 -1 -37 -5 -11 -10 -59 -11 -108 0 -59 -5 -95 -15 -111 -11 -16 -12 -27
-4 -42 8 -14 7 -29 -4 -54 -9 -21 -11 -37 -5 -43 6 -6 4 -23 -5 -44 -7 -19
-14 -68 -16 -109 -3 -119 -8 -191 -14 -198 -3 -3 1 -16 9 -28 8 -12 11 -24 6
-26 -5 -2 -11 -19 -14 -38 -3 -19 -6 -42 -8 -50 -2 -8 6 -19 19 -25 25 -11 31
-28 5 -18 -13 5 -15 2 -11 -15 4 -13 0 -26 -9 -34 -12 -9 -13 -24 -8 -68 4
-30 8 -64 9 -75 2 -11 -1 -33 -6 -50 -6 -16 -11 -93 -13 -170 -3 -77 -7 -198
-10 -268 -5 -98 -3 -132 7 -145 8 -9 8 -13 1 -9 -8 5 -11 -11 -12 -58 0 -53 3
-65 16 -65 15 0 15 -2 -1 -19 -19 -21 -31 -188 -14 -208 6 -8 6 -24 -1 -48 -5
-20 -8 -46 -5 -58 2 -12 5 -84 6 -160 1 -76 7 -173 15 -215 8 -42 17 -90 20
-107 9 -51 47 -119 73 -131 14 -7 54 -25 90 -42 79 -37 166 -65 183 -59 6 2
27 -2 45 -10 17 -7 32 -11 32 -8 0 3 9 1 21 -5 15 -9 24 -8 35 1 12 9 23 9 52
0 20 -7 42 -11 49 -9 13 4 57 -44 80 -87 17 -32 20 -100 9 -219 -5 -46 -3 -73
5 -82 9 -12 9 -17 -4 -27 -11 -9 -16 -36 -19 -99 -3 -50 0 -88 5 -88 5 0 7
-15 3 -32 -3 -18 -8 -76 -11 -128 -3 -52 -8 -111 -11 -130 -3 -19 -5 -114 -4
-210 1 -96 1 -191 1 -210 -2 -123 0 -433 4 -474 5 -59 32 -91 108 -129 29 -14
60 -36 70 -49 58 -76 91 -113 101 -114 6 -1 16 -2 23 -3 7 0 21 -10 31 -21
l19 -21 6 21 c6 23 31 25 67 5 14 -8 35 -14 47 -15 20 0 22 5 21 46 0 25 4 50
10 56 18 18 41 1 47 -36 7 -35 31 -51 55 -36 8 5 4 10 -12 15 -22 8 -22 8 7
12 43 6 53 20 27 38 -32 23 -41 73 -46 253 -2 90 -6 166 -10 169 -6 6 -9 -17
-9 -60 0 -10 -3 -15 -7 -10 -28 32 -33 266 -4 242 7 -5 11 -19 9 -30 -2 -10 0
-19 4 -19 5 0 11 14 13 31 4 24 1 33 -13 36 -14 4 -19 21 -24 89 -9 99 -32
114 -41 25 -4 -53 -7 -55 -13 -11 -8 52 -5 399 3 510 3 41 8 116 11 165 8 134
15 189 25 199 6 6 9 -45 6 -142 -1 -84 1 -155 5 -158 5 -3 11 5 13 18 5 23 18
199 17 228 -2 56 1 158 5 172 3 10 -3 21 -16 28 -11 6 -19 18 -19 28 1 16 2
16 6 -1 6 -22 32 -22 39 1 3 9 9 24 13 32 5 8 4 26 0 38 -7 18 -14 22 -29 17
-32 -10 -39 1 -28 47 5 25 5 44 0 46 -15 5 17 106 38 122 24 18 48 121 44 187
-2 23 0 43 4 43 4 0 7 24 7 53 -1 28 4 60 10 70 7 13 6 20 -3 26 -10 6 -10 10
3 21 8 7 15 9 15 4 0 -5 23 -34 51 -64 28 -30 53 -66 56 -79 6 -37 13 -43 39
-38 24 4 28 -2 25 -35 -4 -32 66 -22 91 14 6 9 8 1 6 -24 -3 -32 -2 -35 13
-27 10 5 28 9 41 9 13 0 39 11 58 25 45 33 63 33 50 -1 -13 -32 -13 -34 3 -34
6 0 23 16 35 36 17 27 27 33 35 25 8 -8 4 -18 -13 -36 -28 -30 -22 -43 10 -17
16 13 24 32 27 65 4 50 -2 58 -22 30 -8 -10 -14 -12 -19 -5 -8 13 6 27 95 98
72 57 82 63 73 39 -6 -16 23 -51 34 -41 3 4 1 15 -5 26 -10 15 -9 19 4 24 9 4
21 2 27 -4 19 -19 29 -10 11 10 -17 19 -17 20 14 37 33 19 44 47 14 36 -10 -3
-24 -10 -30 -16 -9 -6 -13 -6 -13 1 0 6 5 14 10 17 6 3 10 13 10 22 0 11 -6
14 -25 9 -14 -4 -25 -3 -25 2 0 14 59 72 73 72 8 0 27 16 42 36 15 19 37 39
49 43 23 9 66 -3 78 -22 4 -6 10 -8 14 -4 4 3 1 13 -6 22 -10 12 -10 15 3 15
8 0 17 6 20 14 3 8 14 12 24 10 23 -5 32 2 63 48 23 35 26 36 47 23 24 -16 36
-7 40 30 7 64 16 85 39 91 23 6 30 38 9 40 -20 2 -65 -41 -77 -73 -11 -30 -34
-50 -45 -39 -3 3 2 15 11 28 23 32 20 47 -6 41 -23 -5 -23 -5 -3 14 11 10 34
35 50 56 22 30 34 38 53 34 23 -4 24 -3 18 37 -6 38 -4 44 19 56 14 7 25 17
25 22 0 14 63 68 79 68 8 0 12 -3 8 -6 -3 -3 -1 -18 4 -32 7 -17 6 -29 -1 -36
-13 -13 -13 -26 -1 -26 6 0 16 12 23 28 11 23 21 28 66 33 73 9 84 21 66 65
-13 30 -12 34 1 34 15 0 33 27 29 48 -1 6 -2 17 -3 24 0 6 -32 -19 -70 -55
-38 -37 -74 -67 -80 -67 -17 0 -13 27 5 34 10 4 14 14 11 26 -3 12 0 20 7 20
7 0 21 18 31 40 23 50 41 65 31 25 l-7 -28 26 24 c40 37 49 59 31 72 -13 10
-12 15 11 31 22 16 25 17 20 4 -3 -9 0 -19 8 -22 11 -4 12 -12 4 -38 -5 -18
-9 -39 -9 -45 0 -20 21 -15 27 5 2 11 26 28 55 40 31 13 52 29 55 41 3 12 12
21 20 21 12 0 13 3 5 13 -9 10 -4 16 23 26 20 7 35 19 35 28 0 8 -19 32 -42
52 -23 21 -38 42 -35 48 4 6 26 14 50 18 25 5 51 17 65 32 28 30 28 31 -4 43
-21 8 -23 12 -12 24 7 7 19 23 27 34 11 15 19 18 31 12 37 -20 70 -19 90 2 31
33 60 105 60 146 0 20 1 51 2 67 2 17 -2 36 -9 43 -22 23 -44 113 -32 129 13
15 -38 86 -137 191 -29 31 -54 60 -54 64 0 14 -106 83 -208 136 -198 102 -247
125 -277 128 -16 1 -58 7 -92 11 -64 9 -104 9 -183 -1 -159 -21 -283 -83 -417
-210 -88 -83 -113 -118 -61 -84 30 19 68 29 68 17 0 -5 -4 -9 -8 -9 -4 0 -37
-28 -73 -63 -35 -34 -81 -74 -101 -87 -21 -14 -38 -31 -38 -38 0 -7 -9 -22
-20 -34 -11 -12 -20 -28 -20 -35 0 -7 -7 -13 -15 -13 -9 0 -20 -11 -25 -24 -5
-13 -17 -30 -27 -37 -10 -8 -28 -31 -40 -51 -19 -31 -20 -38 -7 -49 22 -18 17
-30 -10 -23 -19 4 -27 0 -36 -16 -7 -13 -27 -43 -46 -67 -19 -25 -34 -54 -34
-66 0 -12 -5 -29 -10 -37 -7 -11 -10 -5 -10 22 0 42 24 110 54 150 29 41 12
46 -23 7 -22 -24 -31 -29 -31 -17 0 9 8 21 18 27 15 8 14 11 -11 20 -16 6 -32
11 -36 11 -5 0 -8 12 -8 26 0 17 3 22 10 15 14 -14 57 28 57 56 0 18 -5 22
-22 20 -15 -1 -23 3 -23 13 0 8 9 15 20 15 15 0 21 9 25 35 3 19 5 41 4 48 -1
6 -2 19 -3 27 0 8 -7 12 -16 9 -8 -4 -15 -1 -15 5 0 6 -5 10 -11 9 -6 -2 -13
2 -16 9 -2 7 7 13 24 15 25 3 28 6 25 37 -2 18 -12 60 -23 93 -10 33 -16 65
-13 70 4 6 -6 37 -22 69 -21 44 -35 61 -53 66 -15 3 -31 12 -38 20 -6 8 -28
33 -48 54 -20 22 -35 45 -32 52 5 16 -40 45 -132 86 -83 36 -156 45 -171 21
-9 -15 -5 -238 6 -310 9 -60 1 -208 -14 -255 -5 -17 -6 -39 -2 -51 9 -24 7
-155 -3 -171 -5 -8 -8 -162 -5 -263 0 -14 -2 -86 -6 -160 -4 -74 -9 -196 -11
-270 -7 -237 -23 -548 -30 -608 -3 -18 -11 -46 -20 -62 -18 -34 -19 -44 -5
-35 15 9 12 -8 -6 -33 -13 -19 -14 -26 -2 -45 18 -30 12 -127 -8 -127 -7 0
-14 9 -14 20 0 11 -5 20 -11 20 -6 0 -9 9 -6 20 3 11 1 20 -5 20 -6 0 -8 9 -5
20 3 13 0 20 -9 20 -8 0 -14 -4 -14 -10 0 -5 -4 -10 -10 -10 -5 0 -7 7 -4 15
4 8 3 26 0 40 -6 23 -7 24 -26 8 -10 -9 -17 -21 -13 -25 3 -5 -3 -8 -13 -6
-10 2 -19 -2 -19 -9 0 -18 -15 -28 -15 -10 0 9 14 32 31 51 17 20 27 40 24 46
-4 7 0 10 10 8 10 -2 20 3 22 10 3 6 -3 12 -11 12 -9 0 -21 11 -26 24 -5 13
-18 27 -29 31 -29 9 -39 32 -39 85 0 45 -11 80 -34 112 -10 14 -9 21 6 37 13
14 15 21 6 21 -8 0 -9 4 -3 13 14 19 16 67 3 83 -10 11 -10 17 1 30 10 13 10
17 -2 25 -11 7 -11 9 0 9 8 0 11 6 7 16 -3 8 -1 36 5 61 8 38 13 303 8 438 -1
17 2 57 5 90 14 125 14 136 -1 151 -8 7 -11 14 -6 14 4 0 9 16 10 35 1 24 -2
33 -9 29 -7 -4 -8 -2 -4 5 4 6 12 9 17 6 5 -4 9 5 9 19 0 14 -5 26 -12 26 -6
0 -4 8 7 20 9 10 15 26 12 34 -3 8 -2 29 3 47 10 35 21 120 20 159 0 14 -1 49
-1 77 -1 29 -4 51 -9 48 -4 -2 -5 7 -2 22 4 20 2 24 -8 18 -10 -6 -11 -4 -6
11 5 10 12 31 16 47 5 15 16 34 24 43 20 20 20 43 1 51 -14 5 -14 7 1 24 9 10
13 23 9 29 -6 9 -10 9 -17 -1 -6 -9 -7 -2 -2 21 4 19 8 45 8 57 1 13 7 28 14
35 15 15 16 64 2 73 -5 3 -10 16 -9 28 0 12 3 16 6 10 12 -31 25 -11 21 31 -3
24 -1 51 4 60 6 11 6 22 -1 30 -7 9 -7 16 0 23 8 8 8 17 0 31 -8 15 -8 22 2
25 9 3 9 7 0 17 -9 10 -8 18 3 35 8 12 15 38 16 56 0 19 5 54 11 77 8 35 7 46
-4 52 -11 7 -11 15 3 43 16 34 16 35 -4 40 -17 5 -19 9 -10 20 7 8 9 17 5 20
-3 4 0 13 6 21 7 8 10 20 7 25 -4 5 3 34 14 63 23 60 25 99 8 116 -8 8 -8 15
1 26 8 10 11 30 7 57 -4 28 -1 50 8 63 18 29 29 93 16 101 -16 10 -12 25 5 19
9 -4 15 0 15 10 0 9 -7 16 -16 16 -14 0 -16 8 -10 48 3 26 8 72 10 102 3 30 9
78 15 105 11 59 6 178 -14 280 -2 11 -4 28 -4 37 -1 10 -12 23 -25 30 -14 7
-24 15 -24 18 1 3 -11 24 -27 48 -19 29 -38 45 -57 49 -15 3 -28 12 -28 19 0
7 -12 21 -26 30 -51 34 -288 63 -346 42z m2401 -2607 c13 -13 27 -18 42 -14
15 4 20 3 15 -6 -4 -6 -12 -9 -17 -6 -5 4 -9 2 -9 -3 0 -6 -12 -13 -27 -17
-20 -5 -24 -9 -13 -14 8 -3 16 -14 16 -24 2 -13 -1 -15 -11 -7 -21 17 -29 -25
-12 -58 15 -32 6 -72 -17 -72 -7 0 -16 -9 -19 -19 -2 -11 -15 -21 -28 -23 -18
-2 -32 -19 -55 -65 -17 -34 -45 -79 -61 -100 -17 -21 -37 -52 -46 -69 -8 -16
-26 -35 -39 -41 -14 -6 -37 -36 -53 -66 -16 -30 -34 -53 -41 -50 -10 4 -37
-31 -69 -88 -5 -10 -21 -20 -36 -23 -22 -4 -26 -9 -22 -26 4 -14 1 -20 -11
-20 -9 0 -16 -5 -16 -10 0 -6 -11 -22 -24 -35 -13 -13 -33 -37 -45 -54 -12
-16 -30 -33 -41 -36 -11 -4 -27 -22 -35 -41 -25 -59 -81 -120 -124 -132 -40
-13 -69 -37 -57 -50 4 -4 16 4 26 18 15 19 20 21 20 8 0 -20 -46 -58 -69 -58
-9 0 -17 -9 -18 -20 -2 -21 -60 -90 -76 -90 -6 0 0 11 14 26 13 14 17 22 9 19
-8 -4 -34 -34 -58 -67 -24 -33 -52 -62 -62 -65 -11 -3 -40 -36 -65 -73 -49
-73 -81 -107 -91 -97 -4 3 -13 0 -21 -8 -17 -17 -53 -20 -53 -4 0 6 9 13 20
16 11 3 20 8 21 12 0 3 2 17 3 30 2 14 8 27 14 29 6 2 9 9 6 16 -7 18 22 46
47 46 16 0 18 -5 14 -27 -5 -25 -4 -25 7 4 7 17 16 35 20 39 4 4 5 16 2 28 -3
13 2 29 14 41 10 12 22 40 26 64 6 41 5 43 -10 30 -15 -12 -16 -11 -9 11 10
34 12 35 30 20 12 -10 16 -9 22 6 4 10 2 19 -5 22 -7 2 -19 10 -26 18 -12 11
-16 10 -29 -9 -11 -16 -18 -19 -27 -11 -8 8 -3 18 20 37 17 14 37 24 44 21 8
-3 21 10 35 36 26 51 26 52 -4 44 -25 -6 -35 9 -15 21 6 4 8 10 6 14 -8 12 24
52 35 45 5 -3 7 -10 4 -15 -6 -9 25 -58 38 -59 4 0 7 19 8 43 0 23 3 36 6 30
8 -22 27 -14 45 17 9 17 24 30 32 30 8 0 20 9 26 19 13 25 13 34 0 26 -5 -3
-10 -2 -10 2 0 15 23 33 41 33 10 0 21 5 24 10 7 11 -17 40 -33 40 -6 0 -8 9
-5 20 7 26 -9 26 -32 0 -13 -14 -22 -17 -29 -10 -7 7 -5 14 7 22 9 7 22 31 29
53 11 35 18 40 50 46 24 4 45 16 59 32 11 15 24 25 29 22 5 -3 14 0 22 7 7 7
22 20 32 28 18 13 19 13 11 0 -6 -12 -5 -13 6 -2 10 9 11 19 2 45 -14 39 -15
97 -2 97 5 0 9 9 9 20 0 20 31 43 53 38 6 -2 32 19 57 46 24 26 65 62 90 79
25 17 47 34 50 37 9 12 72 30 105 30 34 0 45 16 45 68 0 24 -10 28 -28 10 -7
-7 -12 -8 -12 -2 0 12 75 51 112 59 19 4 30 0 38 -12 9 -14 10 -11 4 16 -4 22
-3 31 4 27 6 -4 15 0 19 8 5 10 16 13 31 10 17 -5 21 -11 16 -30 -6 -24 9 -34
21 -14 4 6 11 8 16 5 5 -4 14 6 21 20 10 22 9 28 -3 36 -10 6 -10 9 -1 9 6 0
21 -9 31 -19z m-2062 -323 c-3 -8 -6 -5 -6 6 -1 11 2 17 5 13 3 -3 4 -12 1
-19z m-12 -538 c3 -5 1 -10 -4 -10 -6 0 -11 5 -11 10 0 6 2 10 4 10 3 0 8 -4
11 -10z m105 -780 c0 -5 -5 -10 -11 -10 -5 0 -7 5 -4 10 3 6 8 10 11 10 2 0 4
-4 4 -10z m82 -139 c-9 -16 -18 -28 -20 -27 -6 7 18 56 27 56 6 0 2 -13 -7
-29z"/>
<path d="M4270 3886 l-35 -10 29 -4 c16 -2 33 1 39 7 16 16 5 19 -33 7z"/>
<path d="M4185 3740 c-3 -6 1 -7 9 -4 18 7 21 14 7 14 -6 0 -13 -4 -16 -10z"/>
<path d="M4058 3673 c7 -3 16 -2 19 1 4 3 -2 6 -13 5 -11 0 -14 -3 -6 -6z"/>
<path d="M4090 3600 c0 -5 5 -10 11 -10 5 0 7 5 4 10 -3 6 -8 10 -11 10 -2 0
-4 -4 -4 -10z"/>
<path d="M4021 3398 c-1 -10 -10 -22 -21 -28 -20 -11 -19 -30 1 -30 12 0 31
49 25 64 -2 6 -5 3 -5 -6z"/>
<path d="M3915 3260 c3 -5 8 -10 11 -10 2 0 4 5 4 10 0 6 -5 10 -11 10 -5 0
-7 -4 -4 -10z"/>
<path d="M3835 3130 c-3 -5 -2 -10 4 -10 5 0 13 5 16 10 3 6 2 10 -4 10 -5 0
-13 -4 -16 -10z"/>
<path d="M3790 3009 c0 -5 5 -7 10 -4 6 3 10 8 10 11 0 2 -4 4 -10 4 -5 0 -10
-5 -10 -11z"/>
<path d="M3700 2866 c0 -24 17 -28 23 -6 3 13 0 20 -9 20 -8 0 -14 -6 -14 -14z"/>
<path d="M3940 4525 c-10 -12 -10 -15 4 -15 9 0 16 7 16 15 0 8 -2 15 -4 15
-2 0 -9 -7 -16 -15z"/>
<path d="M4000 4507 c-20 -15 -70 -81 -70 -91 0 -5 16 6 35 23 20 17 39 31 43
31 4 0 8 11 8 25 1 14 1 25 0 25 0 0 -8 -6 -16 -13z"/>
<path d="M3833 4313 c-7 -3 -13 -11 -13 -19 0 -8 -3 -14 -7 -14 -11 -1 -46
-50 -36 -50 17 0 86 70 77 79 -5 5 -15 6 -21 4z"/>
<path d="M3750 4189 c0 -5 5 -7 10 -4 6 3 10 8 10 11 0 2 -4 4 -10 4 -5 0 -10
-5 -10 -11z"/>
<path d="M5402 3924 c1 -9 9 -19 16 -22 9 -3 13 2 10 14 -1 9 -9 19 -16 22 -9
3 -13 -2 -10 -14z"/>
<path d="M5555 3900 c-7 -12 2 -30 16 -30 12 0 12 27 0 35 -5 3 -12 1 -16 -5z"/>
<path d="M4857 3283 c-3 -5 -9 -25 -15 -46 -10 -34 -9 -37 13 -43 30 -8 57 -2
62 13 3 7 -3 10 -15 6 -27 -7 -36 24 -17 53 14 22 14 24 -4 24 -11 0 -22 -3
-24 -7z"/>
<path d="M4810 3159 c0 -5 5 -7 10 -4 6 3 10 8 10 11 0 2 -4 4 -10 4 -5 0 -10
-5 -10 -11z"/>
<path d="M4800 3050 c0 -5 5 -10 11 -10 5 0 7 5 4 10 -3 6 -8 10 -11 10 -2 0
-4 -4 -4 -10z"/>
<path d="M2932 2995 c-1 -13 -3 -30 -4 -36 -2 -7 4 -14 13 -16 20 -5 32 33 18
59 -13 25 -24 23 -27 -7z"/>
<path d="M4461 2829 c-18 -20 -19 -23 -4 -46 9 -13 18 -21 21 -18 6 6 11 85 5
85 -1 0 -11 -10 -22 -21z"/>
<path d="M4531 2786 c-7 -8 -8 -17 -3 -20 6 -3 13 1 16 10 9 23 2 28 -13 10z"/>
<path d="M3022 2746 c1 -10 8 -17 13 -17 15 1 12 24 -3 29 -9 3 -13 -2 -10
-12z"/>
<path d="M4435 2740 c3 -5 1 -10 -4 -10 -6 0 -11 -5 -11 -11 0 -8 5 -8 15 1
17 14 20 30 4 30 -5 0 -7 -4 -4 -10z"/>
<path d="M3623 2530 c1 -11 4 -20 8 -20 4 0 9 9 12 20 3 13 0 20 -8 20 -8 0
-13 -9 -12 -20z"/>
<path d="M4245 2540 c3 -5 11 -10 16 -10 6 0 7 5 4 10 -3 6 -11 10 -16 10 -6
0 -7 -4 -4 -10z"/>
<path d="M3940 2332 c0 -10 41 -35 47 -28 11 11 -7 36 -27 36 -11 0 -20 -3
-20 -8z"/>
<path d="M3540 2101 c-6 -12 -8 -21 -4 -21 3 0 1 -7 -6 -15 -12 -14 -6 -35 9
-35 8 0 23 81 16 88 -2 2 -8 -6 -15 -17z"/>
<path d="M3545 1431 c-3 -5 -1 -12 4 -15 5 -3 11 1 15 9 6 16 -9 21 -19 6z"/>
<path d="M3487 1304 c-10 -10 -9 -62 2 -68 9 -6 27 31 27 53 -1 16 -19 25 -29
15z"/>
<path d="M3540 1285 c0 -8 2 -15 4 -15 2 0 6 7 10 15 3 8 1 15 -4 15 -6 0 -10
-7 -10 -15z"/>
<path d="M3476 1025 c-9 -24 -7 -57 3 -51 13 8 20 42 11 56 -5 8 -9 7 -14 -5z"/>
<path d="M3526 853 c-4 -9 -2 -21 4 -27 7 -7 10 -2 10 17 0 31 -5 34 -14 10z"/>
</g>
</svg>
